<svg width="60" height="48" viewBox="0 0 60 48" fill="none" xmlns="http://www.w3.org/2000/svg">
<rect y="10" width="4" height="4" fill="#0057FF"/>
<rect y="14" width="4" height="4" fill="#0057FF"/>
<rect x="4" y="18" width="4" height="4" fill="#0057FF"/>
<rect x="4" y="22" width="4" height="4" fill="#0057FF"/>
<rect x="4" y="26" width="4" height="4" fill="#0057FF"/>
<rect x="20" y="36" width="4" height="4" fill="#0057FF"/>
<rect x="20" y="34" width="4" height="4" fill="#0057FF"/>
<rect x="20" y="40" width="4" height="4" fill="#0057FF"/>
<rect x="38" y="36" width="4" height="4" fill="#0057FF"/>
<rect x="38" y="40" width="4" height="4" fill="#0057FF"/>
<rect x="46" y="36" width="4" height="4" fill="#0057FF"/>
<rect x="46" y="40" width="4" height="4" fill="#0057FF"/>
<rect x="46" y="44" width="4" height="4" fill="#0057FF"/>
<rect x="56" y="20" width="4" height="4" fill="#0057FF"/>
<rect x="56" y="24" width="4" height="4" fill="#0057FF"/>
<rect x="56" y="28" width="4" height="4" fill="#0057FF"/>
<rect x="50" y="16" width="4" height="4" fill="#0057FF"/>
<rect x="50" y="20" width="4" height="4" fill="#0057FF"/>
<rect x="52" y="20" width="4" height="4" fill="#0057FF"/>
<rect x="52" y="32" width="4" height="4" fill="#0057FF"/>
<rect x="46" y="24" width="4" height="4" fill="#0057FF"/>
<rect x="46" y="25" width="2" height="2" fill="white"/>
<rect x="46" y="12" width="4" height="4" fill="#0057FF"/>
<rect x="44" y="12" width="4" height="4" fill="#0057FF"/>
<rect x="40" y="8" width="4" height="4" fill="#0057FF"/>
<rect x="40" y="2" width="4" height="4" fill="#0057FF"/>
<rect x="40" width="4" height="4" fill="#0057FF"/>
<rect x="32" y="6" width="4" height="4" fill="#0057FF"/>
<rect x="24" y="6" width="4" height="4" fill="#0057FF"/>
<rect x="20" y="6" width="4" height="4" fill="#0057FF"/>
<rect x="12" y="10" width="4" height="4" fill="#0057FF"/>
<rect x="8" y="14" width="4" height="4" fill="#0057FF"/>
<rect x="16" y="10" width="4" height="4" fill="#0057FF"/>
<rect x="28" y="6" width="4" height="4" fill="#0057FF"/>
<rect x="50" y="32" width="4" height="4" fill="#0057FF"/>
<rect x="36" y="6" width="4" height="4" fill="#0057FF"/>
<rect x="36" y="10" width="4" height="4" fill="#0057FF"/>
<rect x="36" y="14" width="4" height="4" fill="#0057FF"/>
<rect x="8" y="30" width="4" height="4" fill="#0057FF"/>
<rect x="8" y="34" width="4" height="4" fill="#0057FF"/>
<rect x="8" y="36" width="4" height="4" fill="#0057FF"/>
<rect x="12" y="40" width="4" height="4" fill="#0057FF"/>
<rect x="12" y="44" width="4" height="4" fill="#0057FF"/>
<rect x="24" y="40" width="4" height="4" fill="#0057FF"/>
<rect x="32" y="40" width="4" height="4" fill="#0057FF"/>
<rect x="34" y="40" width="4" height="4" fill="#0057FF"/>
<rect x="42" y="44" width="4" height="4" fill="#0057FF"/>
<rect x="28" y="40" width="4" height="4" fill="#0057FF"/>
<rect x="16" y="44" width="4" height="4" fill="#0057FF"/>
</svg>
